<svg xmlns="http://www.w3.org/2000/svg" viewBox="10 0 720 628" width="720" height="628"
     role="img" aria-label="WebSculpt 架构总览：AI Agent 驱动 explore、capture、command 三阶段闭环，由 CLI 调度 node、browser、shell/py 三种执行后端">
  <title>WebSculpt 架构总览：AI Agent 驱动 explore、capture、command 三阶段闭环，由 CLI 调度 node、browser、shell/py 三种执行后端</title>
  <!-- Generated by scripts/build-docs-svgs.mjs. Change the layout there, not the coordinates here. -->
  <style>
    .layer{ font-family:"PingFang SC","Microsoft YaHei","Noto Sans SC","Hiragino Sans GB","Segoe UI",sans-serif; }
    .mono { font-family:Consolas,Menlo,"PingFang SC","Microsoft YaHei","Noto Sans SC",monospace; }
    .flow { font-family:Consolas,Menlo,"PingFang SC","Microsoft YaHei","Noto Sans SC",monospace; font-size:16px; font-weight:700; fill:#0f3d91; letter-spacing:.4px; }
    .node { font-family:Consolas,Menlo,"PingFang SC","Microsoft YaHei","Noto Sans SC",monospace; font-size:15px; font-weight:700; fill:#0f3d91; }
    .sub  { font-size:13.5px; fill:#5b6472; }
    .state{ font-family:Consolas,Menlo,"PingFang SC","Microsoft YaHei","Noto Sans SC",monospace; font-size:12.5px; fill:#79818f; }
    .card { fill:#ffffff; stroke:#d6dbe6; stroke-width:1.5; }
    .main { fill:#f7f9ff; stroke:#4263d6; stroke-width:2; }
    .edge { stroke:#8a94a6; stroke-width:1.9; fill:none; }
    .dash { stroke:#8a94a6; stroke-width:1.9; fill:none; stroke-dasharray:7 6; }
    .lbl  { fill:#79818f; font-size:13px; }
  </style>
  <defs>
    <marker id="arw" viewBox="0 0 10 10" refX="8.5" refY="5" markerWidth="7" markerHeight="7" orient="auto">
      <path d="M0,0 L10,5 L0,10 Z" fill="#8a94a6"/>
    </marker>
  </defs>
  <!-- main chain, three-way dispatch, reuse loop -->
  <path class="edge" d="M152,116 V162" marker-end="url(#arw)"/>
  <path class="edge" d="M440,116 V162" marker-end="url(#arw)"/>
  <path class="edge" d="M244,200 H352" marker-end="url(#arw)"/>
  <path class="edge" d="M440,238 V284" marker-end="url(#arw)"/>
  <path class="edge" d="M440,360 V406" marker-end="url(#arw)"/>
  <path class="edge" d="M440,482 V510"/>
  <path class="edge" d="M152,510 H620"/>
  <path class="edge" d="M152,510 V538" marker-end="url(#arw)"/>
  <path class="edge" d="M440,510 V538" marker-end="url(#arw)"/>
  <path class="edge" d="M620,510 V538" marker-end="url(#arw)"/>
  <path class="dash" d="M354,322 H152 V238" marker-end="url(#arw)"/>
  <text class="lbl layer" x="298" y="191" text-anchor="middle">交接</text>
  <text class="lbl layer" x="253" y="313" text-anchor="middle">复用已有命令</text>
  <!-- boxes -->
  <rect class="main" x="50" y="40" width="640" height="76" rx="8"/>
  <text class="mono flow" x="370" y="74" text-anchor="middle">AI Agent</text>
  <text class="layer sub" x="370" y="98" text-anchor="middle">理解需求 · 探索路径 · 沉淀资产 · 调用命令</text>
  <rect class="main" x="60" y="162" width="184" height="76" rx="8"/>
  <text class="mono flow" x="152" y="196" text-anchor="middle">explore</text>
  <text class="layer sub" x="152" y="220" text-anchor="middle">发现与验证</text>
  <rect class="main" x="352" y="162" width="176" height="76" rx="8"/>
  <text class="mono flow" x="440" y="196" text-anchor="middle">capture</text>
  <text class="layer sub" x="440" y="220" text-anchor="middle">沉淀与固化</text>
  <rect class="main" x="354" y="284" width="172" height="76" rx="8"/>
  <text class="mono flow" x="440" y="318" text-anchor="middle">command</text>
  <text class="layer sub" x="440" y="342" text-anchor="middle">执行与复用</text>
  <rect class="main" x="354" y="406" width="172" height="76" rx="8"/>
  <text class="mono flow" x="440" y="440" text-anchor="middle">CLI</text>
  <text class="layer sub" x="440" y="464" text-anchor="middle">交互与调度层</text>
  <rect class="card" x="97" y="538" width="110" height="50" rx="8"/>
  <text class="mono flow" x="152" y="569" text-anchor="middle">node</text>
  <rect class="card" x="375" y="538" width="130" height="50" rx="8"/>
  <text class="mono flow" x="440" y="559" text-anchor="middle">browser</text>
  <text class="mono sub" x="440" y="583" text-anchor="middle">(daemon)</text>
  <rect class="card" x="560" y="538" width="120" height="50" rx="8"/>
  <text class="mono flow" x="620" y="569" text-anchor="middle">shell / py</text>
</svg>
